<svg width="24" height="24" viewBox="0 0 24 24" fill="none" xmlns="http://www.w3.org/2000/svg">
<path d="M16.6501 6.27228C16.6501 5.74377 16.8068 5.22713 17.1004 4.7877C17.394 4.34826 17.8114 4.00576 18.2997 3.80351C18.7879 3.60126 19.3252 3.54834 19.8436 3.65144C20.3619 3.75455 20.8381 4.00905 21.2118 4.38276C21.5855 4.75647 21.84 5.23261 21.9431 5.75096C22.0462 6.26932 21.9933 6.8066 21.791 7.29488C21.5888 7.78316 21.2463 8.2005 20.8068 8.49412C20.3674 8.78774 19.8508 8.94446 19.3223 8.94446C18.6135 8.94446 17.9339 8.66293 17.4327 8.1618C16.9316 7.66067 16.6501 6.98099 16.6501 6.27228ZM3.28916 7.16301H13.9779C14.2141 7.16301 14.4407 7.06916 14.6077 6.90212C14.7748 6.73508 14.8686 6.50852 14.8686 6.27228C14.8686 6.03605 14.7748 5.80949 14.6077 5.64244C14.4407 5.4754 14.2141 5.38155 13.9779 5.38155H3.28916C3.05293 5.38155 2.82637 5.4754 2.65933 5.64244C2.49228 5.80949 2.39844 6.03605 2.39844 6.27228C2.39844 6.50852 2.49228 6.73508 2.65933 6.90212C2.82637 7.06916 3.05293 7.16301 3.28916 7.16301ZM8.63353 9.83519C8.08222 9.83674 7.54488 10.0088 7.09518 10.3277C6.64549 10.6466 6.30545 11.0969 6.12168 11.6166H3.28916C3.05293 11.6166 2.82637 11.7105 2.65933 11.8775C2.49228 12.0446 2.39844 12.2711 2.39844 12.5074C2.39844 12.7436 2.49228 12.9702 2.65933 13.1372C2.82637 13.3043 3.05293 13.3981 3.28916 13.3981H6.12168C6.28508 13.8603 6.57248 14.2686 6.95241 14.5784C7.33234 14.8882 7.79016 15.0875 8.27578 15.1545C8.76139 15.2215 9.25608 15.1536 9.70571 14.9583C10.1553 14.763 10.5426 14.4477 10.825 14.0471C11.1075 13.6464 11.2743 13.1758 11.3072 12.6867C11.3401 12.1976 11.2378 11.7088 11.0115 11.274C10.7853 10.8391 10.4437 10.4748 10.0243 10.2211C9.60489 9.96731 9.12374 9.83381 8.63353 9.83519ZM21.1037 11.6166H13.9779C13.7417 11.6166 13.5151 11.7105 13.3481 11.8775C13.181 12.0446 13.0872 12.2711 13.0872 12.5074C13.0872 12.7436 13.181 12.9702 13.3481 13.1372C13.5151 13.3043 13.7417 13.3981 13.9779 13.3981H21.1037C21.3399 13.3981 21.5665 13.3043 21.7335 13.1372C21.9006 12.9702 21.9944 12.7436 21.9944 12.5074C21.9944 12.2711 21.9006 12.0446 21.7335 11.8775C21.5665 11.7105 21.3399 11.6166 21.1037 11.6166ZM10.415 17.8517H3.28916C3.05293 17.8517 2.82637 17.9456 2.65933 18.1126C2.49228 18.2797 2.39844 18.5062 2.39844 18.7425C2.39844 18.9787 2.49228 19.2053 2.65933 19.3723C2.82637 19.5393 3.05293 19.6332 3.28916 19.6332H10.415C10.6512 19.6332 10.8778 19.5393 11.0448 19.3723C11.2119 19.2053 11.3057 18.9787 11.3057 18.7425C11.3057 18.5062 11.2119 18.2797 11.0448 18.1126C10.8778 17.9456 10.6512 17.8517 10.415 17.8517ZM21.1037 17.8517H18.2712C18.0611 17.2574 17.6476 16.7565 17.1039 16.4376C16.5602 16.1186 15.9212 16.0022 15.3 16.1088C14.6787 16.2154 14.1151 16.5382 13.7088 17.0201C13.3025 17.502 13.0797 18.1121 13.0797 18.7425C13.0797 19.3728 13.3025 19.9829 13.7088 20.4648C14.1151 20.9468 14.6787 21.2696 15.3 21.3762C15.9212 21.4828 16.5602 21.3663 17.1039 21.0473C17.6476 20.7284 18.0611 20.2275 18.2712 19.6332H21.1037C21.3399 19.6332 21.5665 19.5393 21.7335 19.3723C21.9006 19.2053 21.9944 18.9787 21.9944 18.7425C21.9944 18.5062 21.9006 18.2797 21.7335 18.1126C21.5665 17.9456 21.3399 17.8517 21.1037 17.8517Z" fill="#4A4A4A"/>
</svg>
